<svg xmlns="http://www.w3.org/2000/svg" xmlns:xlink="http://www.w3.org/1999/xlink" data-v-6805eed4="" version="1.0" width="81.35" height="81.35">   <g class="icon-text-wrapper icon-svg-group iconsvg" fill="#915EFF" data-v-6805eed4=""><g fill="#915EFF" class="iconsvg-imagesvg icon_container"> <svg viewBox="0 0 60 60" x="0" y="0" width="81.34920634920634" height="81.34920634920634" class="image-svg-svg bn" style="overflow: visible;"><g hollow-target="iconBnFill" mask="url(#30709691-0a15-469a-9c5a-b34c98836401)"><g><svg xmlns="http://www.w3.org/2000/svg" xmlns:xlink="http://www.w3.org/1999/xlink" fill="#915EFF" xml:space="preserve" version="1.1" style="shape-rendering: geometricprecision; text-rendering: geometricprecision; overflow: visible;" viewBox="0 0 300 300" x="0" y="0" fill-rule="evenodd" clip-rule="evenodd" width="60" height="60" filtersec="colorsf9728291003"><g transform="scale(1, 1) skewX(0)"><defs/><g><circle fill="#915EFF" cx="150" cy="150" r="150"/></g></g></svg></g> <g><svg xmlns="http://www.w3.org/2000/svg" xmlns:xlink="http://www.w3.org/1999/xlink" viewBox="0 0 37.828125 50.44921875" width="40" height="40" x="10" y="10" class="image-svg-letter"><path transform="translate(-1.40625 50.44921875)" d="M7.24-50.45L1.41-50.45L1.41 0L16.95 0L16.95-5.84L7.24-5.84L7.24-50.45ZM33.40-42.68L33.40-25.24Q33.40-24.43 32.84-23.87L32.84-23.87Q32.27-23.27 31.46-23.27L31.46-23.27L28.55-23.27L28.55-44.65L31.46-44.65Q32.27-44.65 32.84-44.05L32.84-44.05Q33.40-43.49 33.40-42.68L33.40-42.68ZM33.40-15.54L33.40-7.77Q33.40-6.96 32.84-6.40L32.84-6.40Q32.27-5.84 31.46-5.84L31.46-5.84L28.55-5.84L28.55-17.47L31.46-17.47Q32.27-17.47 32.84-16.91L32.84-16.91Q33.40-16.31 33.40-15.54L33.40-15.54ZM31.46-50.45L22.71-50.45L22.71-23.27L21.69-23.27L19.76-17.47L22.71-17.47L22.71 0L31.46 0Q34.66 0 36.95-2.29L36.95-2.29Q39.23-4.54 39.23-7.77L39.23-7.77L39.23-15.54Q39.23-18.25 37.51-20.39L37.51-20.39Q39.23-22.50 39.23-25.24L39.23-25.24L39.23-42.68Q39.23-45.91 36.95-48.16L36.95-48.16Q34.66-50.45 31.46-50.45L31.46-50.45Z" fill="#FFFFFF"/></svg></g></g></svg> <defs><filter id="colors2788226362"><feColorMatrix type="matrix" values="0 0 0 0 0.8984375  0 0 0 0 0.56640625  0 0 0 0 0.21875  0 0 0 1 0" class="icon-fecolormatrix"/></filter> <filter id="colorsf9728291003"><feColorMatrix type="matrix" values="0 0 0 0 0.99609375  0 0 0 0 0.99609375  0 0 0 0 0.99609375  0 0 0 1 0" class="icon-fecolormatrix"/></filter> <filter id="colorsb9493146303"><feColorMatrix type="matrix" values="0 0 0 0 0  0 0 0 0 0  0 0 0 0 0  0 0 0 1 0" class="icon-fecolormatrix"/></filter></defs></g> </g></svg>